<svg xmlns="http://www.w3.org/2000/svg" xmlns:xlink="http://www.w3.org/1999/xlink" data-background-color="#00784a" preserveAspectRatio="xMidYMid meet" viewBox="122.24 159.48 395.52 81.03">

    <g id="tight-bounds" transform="matrix(1,0,0,1,122.24000000000001,159.4850409163133)"><svg viewBox="0 0 395.52 81.02991816737341" height="81.02991816737341" width="395.52">
            <g><svg viewBox="0 0 395.52 81.02991816737341" height="81.02991816737341" width="395.52">
                    <g><svg viewBox="0 0 395.52 81.02991816737341" height="81.02991816737341" width="395.52">
                            <g><svg viewBox="0 0 395.52 81.02991816737341" height="81.02991816737341" width="395.52">
                                    <g><svg viewBox="0 0 395.52 81.02991816737341" height="81.02991816737341" width="395.52">
                                            <path d="M394.594 17.379C392.735 8.968 387.435 6.63 387.435 6.63 371.165-2.033 350.86-0.166 332.619 1.079 300.414 1.13 268.339 2.98 236.208 3.972 168.767 4.124 100.749 1.634 33.643 7.774 27.339 9.658-6.54 8.144 1.121 18.456 3.129 22.746 10.456 27.506 10.232 31.442 11.236 32.132 12.631 30.551 13.226 31.543 15.309 34.218 18.711 32.956 21.501 34.538 17.614 38.76 20.403 42.276 23.062 45.96 18.377 46.918 12.371 46.464 9.675 49.643 9.396 51.948 7.89 51.511 6.235 51.41 5.026 51.342 2.59 51.595 2.999 52.318 4.394 54.791-1.594 56.221 2.162 58.643-0.422 61.267 3.948 63.538 3.353 66.381 3.278 66.953 3.687 67.441 4.338 67.575 7.22 68.299 3.018 69.712 3.464 71.243 33.029 81.706 65.104 74.472 95.394 79.283 103.259 75.919 97.346 80.478 100.489 79.771 102.943 78.947 104.728 82.362 107.499 80.427 107.927 79.872 107.276 78.56 108.8 78.812 109.6 78.947 110.307 78.913 110.418 78.14 110.586 76.979 109.117 77.702 108.726 77.097 112.947 74.035 111.906 81.319 115.866 81.016 115.68 80.125 114.528 78.846 116.889 79.014 119.232 77.736 119.306 76.676 121.389 79.553 121.463 80.175 121.835 80.612 122.43 80.915 128.938 77.786 135.409 82.025 142.233 80.612 146.417 79.065 150.433 81.453 154.672 80.865 156.16 80.394 157.666 79.553 159.098 80.966 176.632 81.268 195.319 80.007 211.943 81.016 256.364 79.132 303.835 81.79 350.674 79.3 361.719 78.341 373.192 76.979 383.958 75.885 383.958 75.885 392.679 72.891 392.679 59.434S394.538 47.659 394.817 36.943C395.096 26.228 396.398 25.79 394.538 17.379Z" opacity="1" fill="#fffafe" data-fill-palette-color="tertiary"/>
                                            <g transform="matrix(1,0,0,1,55.76832,26.230666666666668)"><svg width="283.98335999999995" viewBox="2.799999952316284 -33.95000076293945 341.9300231933594 34.400001525878906" height="28.568584834040067" data-palette-color="#00784a">
                                                    <path d="M14.8 0.3Q11.45 0.3 8.72-1.18 6-2.65 4.4-5.53 2.8-8.4 2.8-12.4L2.8-12.4Q2.8-15.45 3.85-19.2L3.85-19.2Q6.15-27.2 11.08-30.5 16-33.8 21.6-33.8L21.6-33.8Q26.7-33.8 30.8-30.1L30.8-30.1 32.3-31.55Q33.55-32.6 34.45-33 35.35-33.4 36.55-33.4L36.55-33.4Q37.85-33.4 38.65-32.77 39.45-32.15 39.45-31.1L39.45-31.1Q39.45-30.7 39.3-30.15L39.3-30.15 37.5-23.85Q37-22.25 36.33-21.6 35.65-20.95 34.5-20.95L34.5-20.95Q33.3-20.95 32.38-21.55 31.45-22.15 30.25-23.7L30.25-23.7Q28.65-25.8 27.43-26.68 26.2-27.55 24.75-27.55L24.75-27.55Q22.5-27.55 20.48-25.28 18.45-23 16.95-17.7L16.95-17.7Q16-14.25 16-11.75L16-11.75Q16-9.1 17.03-7.73 18.05-6.35 19.9-6.35L19.9-6.35Q21.5-6.35 22.38-7.1 23.25-7.85 23.75-9.7L23.75-9.7 24.1-10.95Q24.35-11.95 24.35-12.3L24.35-12.3Q24.35-12.9 24.08-13.15 23.8-13.4 23.15-13.7L23.15-13.7 21.4-14.35Q20.25-14.8 20.25-16L20.25-16Q20.25-16.35 20.3-16.55L20.3-16.55Q20.5-17.2 21.03-17.5 21.55-17.8 22.65-17.8L22.65-17.8 37.75-17.75Q39.4-17.75 39.4-16.7L39.4-16.7Q39.4-16.5 39.3-16.1L39.3-16.1Q39.1-15.35 38.65-14.9 38.2-14.45 37.35-14L37.35-14 36.05-13.25Q35.55-12.95 35.3-12.68 35.05-12.4 34.95-12L34.95-12 32.3-2.75Q31.8-1.1 31.18-0.55 30.55 0 29.65 0L29.65 0 27.55 0Q26.35 0 25.58-0.5 24.8-1 24.3-2.45L24.3-2.45 23.8-3.9Q20.2 0.3 14.8 0.3L14.8 0.3ZM76.05-23.15Q75.25-20.25 73.05-18.63 70.85-17 67.5-16.6L67.5-16.6Q69.9-16.4 71.1-15.2 72.3-14 72.3-12.05L72.3-12.05Q72.3-11.3 72.05-10.2L72.05-10.2 71.5-7.75Q71.4-7.25 71.4-7.05L71.4-7.05Q71.4-6.4 71.7-6.08 72-5.75 72.55-5.75L72.55-5.75Q73.6-5.75 74.07-5.45 74.55-5.15 74.4-4.35L74.4-4.35Q74.2-3.2 73.2-2.1 72.2-1 70.37-0.28 68.55 0.45 65.95 0.45L65.95 0.45Q62.65 0.45 60.7-1.03 58.75-2.5 58.75-5.25L58.75-5.25Q58.75-6.3 59.05-7.5L59.05-7.5 59.85-10.7Q60.05-11.35 60.05-12.05L60.05-12.05Q60.05-13.2 59.27-13.7 58.5-14.2 56.8-14.2L56.8-14.2 54.9-14.2 52.6-5.9Q52.5-5.6 52.5-5.15L52.5-5.15Q52.5-4.45 52.85-3.95 53.2-3.45 53.8-2.9L53.8-2.9Q54.25-2.55 54.5-2.23 54.75-1.9 54.75-1.55L54.75-1.55Q54.75-0.7 53.95-0.35 53.15 0 51.6 0L51.6 0 39.05 0Q37.75 0 37.1-0.48 36.45-0.95 36.65-1.8L36.65-1.8Q36.75-2.25 37.02-2.53 37.3-2.8 37.85-3.15L37.85-3.15Q38.7-3.65 39.2-4.2 39.7-4.75 40-5.9L40-5.9 46.1-27.45Q46.3-28.1 46.3-28.7L46.3-28.7Q46.3-29.25 46.12-29.63 45.95-30 45.65-30.5L45.65-30.5Q45.2-31.15 45.2-31.55L45.2-31.55Q45.2-31.7 45.3-32.1L45.3-32.1Q45.5-32.75 46.17-33.02 46.85-33.3 48.25-33.3L48.25-33.3 65-33.3Q68.45-33.3 71.02-32.25 73.6-31.2 74.97-29.38 76.35-27.55 76.35-25.25L76.35-25.25Q76.35-24.2 76.05-23.15L76.05-23.15ZM63.25-23.65Q63.5-24.8 63.5-25.4L63.5-25.4Q63.5-28.05 60.6-28.05L60.6-28.05 58.5-28.05 56.3-19.2 58.4-19.2Q60.35-19.2 61.47-20.15 62.6-21.1 63.25-23.65L63.25-23.65ZM108.45-33.3Q110.3-33.3 111.32-32.5 112.35-31.7 112.35-30.3L112.35-30.3Q112.35-29.6 112.15-28.95L112.15-28.95 110.85-24.3Q110.5-22.95 109.82-22.43 109.15-21.9 107.9-21.9L107.9-21.9Q106.7-21.9 106.02-22.43 105.35-22.95 105-24.15L105-24.15 104.2-27Q103.95-27.9 103.6-28.2 103.25-28.5 102.25-28.5L102.25-28.5 97-28.5 94.5-19.6 96.7-19.6Q97.05-19.6 97.65-20.1L97.65-20.1 99.35-21.6Q100.1-22.25 100.65-22.55 101.2-22.85 102-22.85L102-22.85Q102.9-22.85 103.47-22.38 104.05-21.9 104.05-21.15L104.05-21.15Q104.05-20.95 103.95-20.55L103.95-20.55 101.9-13.6Q101.6-12.5 100.87-11.98 100.15-11.45 99.3-11.45L99.3-11.45Q97.9-11.45 97.2-12.9L97.2-12.9 96.35-14.65Q96-15.4 95.25-15.4L95.25-15.4 93.3-15.4 90.35-4.8 94.75-4.8Q95.7-4.8 96.42-5.18 97.15-5.55 98-6.5L98-6.5 101-9.8Q101.8-10.65 102.52-11.03 103.25-11.4 104.3-11.4L104.3-11.4Q105.4-11.4 106.1-10.9 106.8-10.4 106.8-9.4L106.8-9.4Q106.8-9 106.65-8.45L106.65-8.45 105.2-3.4Q104.65-1.5 103.6-0.75 102.55 0 100.55 0L100.55 0 76.7 0Q75.65 0 75.07-0.35 74.5-0.7 74.5-1.3L74.5-1.3Q74.5-1.6 74.65-1.95L74.65-1.95Q74.85-2.5 75.3-2.8 75.75-3.1 75.85-3.15L75.85-3.15Q76.65-3.65 77.15-4.17 77.65-4.7 78-5.9L78-5.9 84.15-27.45Q84.35-28.1 84.35-28.65L84.35-28.65Q84.35-29.25 84.17-29.65 84-30.05 83.65-30.5L83.65-30.5Q83.2-31.15 83.2-31.55L83.2-31.55Q83.2-31.7 83.3-32.1L83.3-32.1Q83.5-32.75 84.2-33.02 84.9-33.3 86.25-33.3L86.25-33.3 108.45-33.3ZM141.49-33.3Q143.34-33.3 144.37-32.5 145.39-31.7 145.39-30.3L145.39-30.3Q145.39-29.6 145.19-28.95L145.19-28.95 143.89-24.3Q143.54-22.95 142.87-22.43 142.19-21.9 140.94-21.9L140.94-21.9Q139.74-21.9 139.07-22.43 138.39-22.95 138.04-24.15L138.04-24.15 137.24-27Q136.99-27.9 136.64-28.2 136.29-28.5 135.29-28.5L135.29-28.5 130.04-28.5 127.54-19.6 129.74-19.6Q130.09-19.6 130.69-20.1L130.69-20.1 132.39-21.6Q133.14-22.25 133.69-22.55 134.24-22.85 135.04-22.85L135.04-22.85Q135.94-22.85 136.52-22.38 137.09-21.9 137.09-21.15L137.09-21.15Q137.09-20.95 136.99-20.55L136.99-20.55 134.94-13.6Q134.64-12.5 133.92-11.98 133.19-11.45 132.34-11.45L132.34-11.45Q130.94-11.45 130.24-12.9L130.24-12.9 129.39-14.65Q129.04-15.4 128.29-15.4L128.29-15.4 126.34-15.4 123.39-4.8 127.79-4.8Q128.74-4.8 129.47-5.18 130.19-5.55 131.04-6.5L131.04-6.5 134.04-9.8Q134.84-10.65 135.57-11.03 136.29-11.4 137.34-11.4L137.34-11.4Q138.44-11.4 139.14-10.9 139.84-10.4 139.84-9.4L139.84-9.4Q139.84-9 139.69-8.45L139.69-8.45 138.24-3.4Q137.69-1.5 136.64-0.75 135.59 0 133.59 0L133.59 0 109.74 0Q108.69 0 108.12-0.35 107.54-0.7 107.54-1.3L107.54-1.3Q107.54-1.6 107.69-1.95L107.69-1.95Q107.89-2.5 108.34-2.8 108.79-3.1 108.89-3.15L108.89-3.15Q109.69-3.65 110.19-4.17 110.69-4.7 111.04-5.9L111.04-5.9 117.19-27.45Q117.39-28.1 117.39-28.65L117.39-28.65Q117.39-29.25 117.22-29.65 117.04-30.05 116.69-30.5L116.69-30.5Q116.24-31.15 116.24-31.55L116.24-31.55Q116.24-31.7 116.34-32.1L116.34-32.1Q116.54-32.75 117.24-33.02 117.94-33.3 119.29-33.3L119.29-33.3 141.49-33.3ZM180.84-33.3Q182.89-33.3 182.89-32L182.89-32Q182.89-31.65 182.84-31.5L182.84-31.5Q182.69-31 182.39-30.73 182.09-30.45 181.54-30.1L181.54-30.1Q180.79-29.65 180.29-29.1 179.79-28.55 179.44-27.4L179.44-27.4 173.24-5.2Q172.39-2.2 171.12-1 169.84 0.2 167.59 0.2L167.59 0.2Q165.59 0.2 164.27-0.98 162.94-2.15 161.79-4.6L161.79-4.6 154.24-20.5 150.04-5.9Q149.89-5.25 149.89-4.75L149.89-4.75Q149.89-4.1 150.12-3.68 150.34-3.25 150.74-2.8L150.74-2.8Q151.29-2.15 151.29-1.7L151.29-1.7Q151.29-1.4 151.24-1.25L151.24-1.25Q151.04-0.55 150.34-0.28 149.64 0 148.24 0L148.24 0 142.79 0Q140.74 0 140.74-1.3L140.74-1.3Q140.74-1.65 140.79-1.8L140.79-1.8Q140.94-2.3 141.24-2.58 141.54-2.85 142.09-3.2L142.09-3.2Q142.84-3.65 143.34-4.2 143.84-4.75 144.19-5.9L144.19-5.9 150.54-28.35 149.74-30Q149.24-31 149.24-31.75L149.24-31.75Q149.24-33.3 151.24-33.3L151.24-33.3 158.64-33.3Q160.24-33.3 161.07-32.58 161.89-31.85 162.84-30L162.84-30 170.14-15.35 173.59-27.4Q173.74-28.1 173.74-28.55L173.74-28.55Q173.74-29.2 173.52-29.63 173.29-30.05 172.89-30.5L172.89-30.5Q172.34-31.15 172.34-31.6L172.34-31.6Q172.34-31.9 172.39-32.05L172.39-32.05Q172.59-32.75 173.29-33.02 173.99-33.3 175.39-33.3L175.39-33.3 180.84-33.3ZM241.94-33.3Q242.99-33.3 243.56-32.98 244.14-32.65 244.14-32.05L244.14-32.05Q244.14-31.8 243.99-31.4L243.99-31.4Q243.84-30.95 243.56-30.73 243.29-30.5 242.74-30.15L242.74-30.15Q241.94-29.7 241.46-29.15 240.99-28.6 240.64-27.45L240.64-27.45 234.54-5.95Q234.34-5.3 234.34-4.7L234.34-4.7Q234.34-4.15 234.51-3.78 234.69-3.4 234.99-2.9L234.99-2.9Q235.19-2.65 235.34-2.38 235.49-2.1 235.49-1.8L235.49-1.8Q235.49-1.7 235.39-1.3L235.39-1.3Q235.19-0.65 234.46-0.35 233.74-0.05 232.39-0.05L232.39-0.05 220.64-0.05Q219.59-0.05 219.01-0.4 218.44-0.75 218.44-1.35L218.44-1.35Q218.44-1.65 218.59-2L218.59-2Q218.74-2.35 219.01-2.63 219.29-2.9 219.51-3.03 219.74-3.15 219.84-3.25L219.84-3.25Q220.64-3.7 221.14-4.25 221.64-4.8 221.99-5.95L221.99-5.95 225.79-19.45 212.84-3.4Q211.24-1.45 210.26-0.73 209.29 0 208.04 0L208.04 0Q206.84 0 206.16-0.78 205.49-1.55 204.94-3.4L204.94-3.4 200.24-18.85 196.54-5.9Q196.34-5.25 196.34-4.65L196.34-4.65Q196.34-4.05 196.51-3.65 196.69-3.25 197.04-2.8L197.04-2.8Q197.49-2.15 197.49-1.75L197.49-1.75Q197.49-1.65 197.39-1.25L197.39-1.25Q197.19-0.55 196.49-0.28 195.79 0 194.39 0L194.39 0 190.24 0Q189.19 0 188.61-0.35 188.04-0.7 188.04-1.3L188.04-1.3Q188.04-1.6 188.19-1.95L188.19-1.95Q188.39-2.5 188.84-2.8 189.29-3.1 189.39-3.15L189.39-3.15Q190.19-3.65 190.69-4.17 191.19-4.7 191.54-5.9L191.54-5.9 197.64-27.5 196.84-30.15Q196.59-30.9 196.59-31.6L196.59-31.6Q196.59-32.5 197.16-32.9 197.74-33.3 198.94-33.3L198.94-33.3 206.69-33.3Q208.19-33.3 208.91-32.65 209.64-32 210.09-30.4L210.09-30.4 215.09-13.8 228.64-30.65Q229.94-32.25 231.19-32.77 232.44-33.3 234.49-33.3L234.49-33.3 241.94-33.3ZM275.43-22.9L270.53-5.9Q270.33-5.25 270.33-4.6L270.33-4.6Q270.33-4.05 270.48-3.68 270.63-3.3 270.81-3.08 270.98-2.85 271.03-2.75L271.03-2.75Q271.53-2.25 271.53-1.75L271.53-1.75Q271.53-1.65 271.43-1.25L271.43-1.25Q271.23-0.55 270.56-0.28 269.88 0 268.48 0L268.48 0 256.63 0Q255.58 0 255.01-0.35 254.43-0.7 254.43-1.3L254.43-1.3Q254.43-1.6 254.58-1.95L254.58-1.95Q254.73-2.35 255.01-2.58 255.28-2.8 255.78-3.1L255.78-3.1Q256.58-3.55 257.08-4.1 257.58-4.65 257.93-5.9L257.93-5.9 259.23-10.2 251.43-10.2 250.08-7.35Q249.23-5.5 249.23-4.45L249.23-4.45Q249.23-3.85 249.43-3.48 249.63-3.1 250.03-2.7L250.03-2.7Q250.38-2.3 250.51-2.02 250.63-1.75 250.53-1.3L250.53-1.3Q250.33-0.55 249.71-0.28 249.08 0 247.73 0L247.73 0 240.28 0Q239.13 0 238.53-0.43 237.93-0.85 237.93-1.55L237.93-1.55Q237.93-2.35 238.51-2.83 239.08-3.3 240.23-3.85L240.23-3.85Q241.73-4.6 242.63-5.33 243.53-6.05 244.18-7.35L244.18-7.35 253.08-25.8Q255.13-30.1 257.91-32.02 260.68-33.95 265.23-33.95L265.23-33.95Q270.33-33.95 273.13-31.88 275.93-29.8 275.93-26.1L275.93-26.1Q275.93-24.55 275.43-22.9L275.43-22.9ZM253.73-15.2L260.73-15.2 263.38-24Q263.58-24.6 263.58-25.25L263.58-25.25Q263.58-26.2 263.06-26.68 262.53-27.15 261.58-27.15L261.58-27.15Q260.38-27.15 259.53-26.45 258.68-25.75 257.83-23.95L257.83-23.95 253.73-15.2ZM301.33-33.3Q306.63-33.3 309.51-31 312.38-28.7 312.38-24.9L312.38-24.9Q312.38-23.4 311.93-21.75L311.93-21.75Q310.53-16.75 306.41-14.35 302.28-11.95 295.98-11.95L295.98-11.95 290.83-11.95 289.13-5.9Q289.03-5.6 289.03-5.1L289.03-5.1Q289.03-4.4 289.36-3.95 289.68-3.5 290.33-2.9L290.33-2.9Q290.88-2.4 291.08-2.15 291.28-1.9 291.28-1.55L291.28-1.55Q291.28-0.7 290.48-0.35 289.68 0 288.13 0L288.13 0 275.58 0Q274.28 0 273.63-0.48 272.98-0.95 273.18-1.8L273.18-1.8Q273.28-2.25 273.56-2.53 273.83-2.8 274.38-3.15L274.38-3.15Q275.23-3.65 275.73-4.2 276.23-4.75 276.53-5.9L276.53-5.9 282.63-27.45Q282.83-28.1 282.83-28.7L282.83-28.7Q282.83-29.25 282.66-29.63 282.48-30 282.18-30.5L282.18-30.5Q281.73-31.15 281.73-31.55L281.73-31.55Q281.73-31.7 281.83-32.1L281.83-32.1Q282.03-32.75 282.71-33.02 283.38-33.3 284.78-33.3L284.78-33.3 301.33-33.3ZM300.03-22.65Q300.58-24.5 300.58-25.9L300.58-25.9Q300.58-28.8 297.88-28.8L297.88-28.8 295.63-28.8 292.08-16.45 294.28-16.45Q296.38-16.45 297.71-17.78 299.03-19.1 300.03-22.65L300.03-22.65ZM327.23-33.6Q330.03-33.6 332.4-32.93 334.78-32.25 337.23-30.8L337.23-30.8 338.38-31.75Q339.58-32.7 340.35-33.05 341.13-33.4 342.13-33.4L342.13-33.4Q343.33-33.4 344.03-32.88 344.73-32.35 344.73-31.35L344.73-31.35Q344.73-30.95 344.58-30.5L344.58-30.5 342.48-23.6Q342.13-22.4 341.6-21.9 341.08-21.4 340.03-21.4L340.03-21.4Q338.93-21.4 338.1-22.08 337.28-22.75 335.53-24.85L335.53-24.85Q333.78-26.85 332.35-27.68 330.93-28.5 329.43-28.5L329.43-28.5Q328.33-28.5 327.58-27.78 326.83-27.05 326.83-26L326.83-26Q326.83-24.8 328.03-23.78 329.23-22.75 331.78-21.2L331.78-21.2Q334.38-19.65 336.08-18.4 337.78-17.15 338.98-15.3 340.18-13.45 340.18-11.05L340.18-11.05Q340.18-9.5 339.68-7.95L339.68-7.95Q338.48-3.95 335.03-1.88 331.58 0.2 326.98 0.2L326.98 0.2Q323.53 0.2 321.18-0.6 318.83-1.4 316.38-3.3L316.38-3.3 314.58-1.8Q313.33-0.75 312.53-0.38 311.73 0 310.73 0L310.73 0Q309.58 0 308.9-0.55 308.23-1.1 308.23-2.05L308.23-2.05Q308.23-2.55 308.43-3.1L308.43-3.1 310.88-10.55Q311.28-11.85 311.98-12.4 312.68-12.95 313.78-12.95L313.78-12.95Q314.93-12.95 315.85-12.15 316.78-11.35 318.28-9.25L318.28-9.25Q319.88-6.95 321.25-6.05 322.63-5.15 324.53-5.15L324.53-5.15Q325.88-5.15 326.6-5.58 327.33-6 327.63-6.95L327.63-6.95Q327.73-7.2 327.73-7.7L327.73-7.7Q327.73-8.9 326.58-9.9 325.43-10.9 323.03-12.3L323.03-12.3Q320.48-13.85 318.88-15.08 317.28-16.3 316.1-18.15 314.93-20 314.93-22.5L314.93-22.5Q314.93-24.25 315.48-25.95L315.48-25.95Q316.53-29.4 319.78-31.5 323.03-33.6 327.23-33.6L327.23-33.6Z" opacity="1" transform="matrix(1,0,0,1,0,0)" fill="#00784a" class="undefined-text-0" data-fill-palette-color="quaternary" id="text-0"/>
                                                </svg></g>
                                        </svg></g>
                                </svg></g>
                        </svg></g>
                    <g/>
                </svg></g>
            <defs/>
        </svg>
    </g>
</svg>